ISO-10303-21;
HEADER;
FILE_DESCRIPTION((''),'2;1');
FILE_NAME('MIDTERMPART','2026-07-29T01:48:24',('cayde'),(''),
'CREO PARAMETRIC BY PTC INC, 2024344','CREO PARAMETRIC BY PTC INC, 2024344','');
FILE_SCHEMA(('CONFIG_CONTROL_DESIGN'));
ENDSEC;
DATA;
#1=CARTESIAN_POINT('',(-2.25E0,-3.624589317622E0,0.E0));
#2=DIRECTION('',(-1.E0,0.E0,0.E0));
#3=DIRECTION('',(0.E0,-1.E0,0.E0));
#4=AXIS2_PLACEMENT_3D('',#1,#2,#3);
#6=CARTESIAN_POINT('',(-2.25E0,-3.624589317622E0,0.E0));
#7=DIRECTION('',(-1.E0,0.E0,0.E0));
#8=DIRECTION('',(0.E0,1.E0,0.E0));
#9=AXIS2_PLACEMENT_3D('',#6,#7,#8);
#11=CARTESIAN_POINT('',(-2.25E0,2.874486467961E0,0.E0));
#12=DIRECTION('',(-1.E0,0.E0,0.E0));
#13=DIRECTION('',(0.E0,-1.E0,0.E0));
#14=AXIS2_PLACEMENT_3D('',#11,#12,#13);
#16=CARTESIAN_POINT('',(-2.25E0,2.874486467961E0,0.E0));
#17=DIRECTION('',(-1.E0,0.E0,0.E0));
#18=DIRECTION('',(0.E0,1.E0,0.E0));
#19=AXIS2_PLACEMENT_3D('',#16,#17,#18);
#21=DIRECTION('',(0.E0,9.935227530579E-1,1.136333540657E-1));
#22=VECTOR('',#21,7.134135952299E0);
#23=CARTESIAN_POINT('',(-2.25E0,-3.724018502429E0,8.693324089257E-1));
#24=LINE('',#23,#22);
#25=CARTESIAN_POINT('',(-2.25E0,-3.624589317622E0,0.E0));
#26=DIRECTION('',(-1.E0,0.E0,0.E0));
#27=DIRECTION('',(0.E0,-1.136333540657E-1,-9.935227530579E-1));
#28=AXIS2_PLACEMENT_3D('',#25,#26,#27);
#30=DIRECTION('',(0.E0,-9.935227530579E-1,1.136333540657E-1));
#31=VECTOR('',#30,7.134135952299E0);
#32=CARTESIAN_POINT('',(-2.25E0,3.363907889589E0,-1.680008205546E0));
#33=LINE('',#32,#31);
#34=CARTESIAN_POINT('',(-2.25E0,2.874486467961E0,0.E0));
#35=DIRECTION('',(1.E0,0.E0,0.E0));
#36=DIRECTION('',(0.E0,2.796940025714E-1,-9.600891963383E-1));
#37=AXIS2_PLACEMENT_3D('',#34,#35,#36);
#39=CARTESIAN_POINT('',(-1.125E0,-3.624589317622E0,0.E0));
#40=DIRECTION('',(1.E0,0.E0,0.E0));
#41=DIRECTION('',(0.E0,1.E0,0.E0));
#42=AXIS2_PLACEMENT_3D('',#39,#40,#41);
#44=DIRECTION('',(1.E0,0.E0,0.E0));
#45=VECTOR('',#44,1.125E0);
#46=CARTESIAN_POINT('',(-2.25E0,-4.124589317622E0,0.E0));
#47=LINE('',#46,#45);
#48=CARTESIAN_POINT('',(1.125E0,-3.624589317622E0,0.E0));
#49=DIRECTION('',(1.E0,0.E0,0.E0));
#50=DIRECTION('',(0.E0,1.E0,0.E0));
#51=AXIS2_PLACEMENT_3D('',#48,#49,#50);
#53=DIRECTION('',(1.E0,0.E0,0.E0));
#54=VECTOR('',#53,1.125E0);
#55=CARTESIAN_POINT('',(1.125E0,-4.124589317622E0,0.E0));
#56=LINE('',#55,#54);
#57=CARTESIAN_POINT('',(-1.125E0,-3.624589317622E0,0.E0));
#58=DIRECTION('',(1.E0,0.E0,0.E0));
#59=DIRECTION('',(0.E0,-1.E0,0.E0));
#60=AXIS2_PLACEMENT_3D('',#57,#58,#59);
#62=DIRECTION('',(1.E0,0.E0,0.E0));
#63=VECTOR('',#62,1.125E0);
#64=CARTESIAN_POINT('',(-2.25E0,-3.124589317622E0,0.E0));
#65=LINE('',#64,#63);
#66=CARTESIAN_POINT('',(1.125E0,-3.624589317622E0,0.E0));
#67=DIRECTION('',(1.E0,0.E0,0.E0));
#68=DIRECTION('',(0.E0,-1.E0,0.E0));
#69=AXIS2_PLACEMENT_3D('',#66,#67,#68);
#71=DIRECTION('',(1.E0,0.E0,0.E0));
#72=VECTOR('',#71,1.125E0);
#73=CARTESIAN_POINT('',(1.125E0,-3.124589317622E0,0.E0));
#74=LINE('',#73,#72);
#75=DIRECTION('',(0.E0,1.136333540657E-1,9.935227530579E-1));
#76=VECTOR('',#75,2.837741066350E0);
#77=CARTESIAN_POINT('',(1.125E0,-2.608930359846E-1,-1.391239492288E0));
#78=LINE('',#77,#76);
#79=DIRECTION('',(0.E0,9.935227530579E-1,1.136333540657E-1));
#80=VECTOR('',#79,6.655820532841E0);
#81=CARTESIAN_POINT('',(-2.125E0,-3.738222671687E0,9.935227530579E-1));
#82=LINE('',#81,#80);
#83=DIRECTION('',(1.E0,0.E0,0.E0));
#84=VECTOR('',#83,4.25E0);
#85=CARTESIAN_POINT('',(-2.125E0,2.874486467961E0,1.749845964264E0));
#86=LINE('',#85,#84);
#87=DIRECTION('',(0.E0,-9.935227530579E-1,-1.136333540657E-1));
#88=VECTOR('',#87,6.655820532841E0);
#89=CARTESIAN_POINT('',(2.125E0,2.874486467961E0,1.749845964264E0));
#90=LINE('',#89,#88);
#91=DIRECTION('',(0.E0,9.935227530579E-1,1.136333540657E-1));
#92=VECTOR('',#91,3.824564318579E0);
#93=CARTESIAN_POINT('',(1.125E0,-3.738222671687E0,9.935227530579E-1));
#94=LINE('',#93,#92);
#95=CARTESIAN_POINT('',(-1.125E0,6.156899935459E-2,1.428120824418E0));
#96=CARTESIAN_POINT('',(-1.131219037482E0,1.321380135223E-1,1.436192097822E0));
#97=CARTESIAN_POINT('',(-1.131345753089E0,2.803313488169E-1,1.453141589605E0));
#98=CARTESIAN_POINT('',(-1.085366398018E0,5.133333056481E-1,1.479790998265E0));
#99=CARTESIAN_POINT('',(-9.879453403005E-1,7.418671140025E-1,1.505929366088E0));
#100=CARTESIAN_POINT('',(-8.405147346235E-1,9.483065097271E-1,
1.529540703499E0));
#101=CARTESIAN_POINT('',(-6.520998442924E-1,1.116549766273E0,1.548783388663E0));
#102=CARTESIAN_POINT('',(-4.733935891550E-1,1.216039173515E0,1.560162408423E0));
#103=CARTESIAN_POINT('',(-3.259086847214E-1,1.269768275333E0,1.566307630595E0));
#104=CARTESIAN_POINT('',(-2.150018952277E-1,1.297527980707E0,1.569482624242E0));
#105=CARTESIAN_POINT('',(-1.238890168438E-1,1.310741810445E0,1.570993945235E0));
#106=CARTESIAN_POINT('',(-5.241268658283E-2,1.315839804675E0,1.571577024164E0));
#107=CARTESIAN_POINT('',(0.E0,1.317065899258E0,1.571717257732E0));
#108=CARTESIAN_POINT('',(5.241268658283E-2,1.315839804675E0,1.571577024164E0));
#109=CARTESIAN_POINT('',(1.238890168438E-1,1.310741810445E0,1.570993945235E0));
#110=CARTESIAN_POINT('',(2.150018952277E-1,1.297527980707E0,1.569482624242E0));
#111=CARTESIAN_POINT('',(3.259086847214E-1,1.269768275333E0,1.566307630595E0));
#112=CARTESIAN_POINT('',(4.733935891550E-1,1.216039173515E0,1.560162408423E0));
#113=CARTESIAN_POINT('',(6.520998442924E-1,1.116549766273E0,1.548783388663E0));
#114=CARTESIAN_POINT('',(8.405147346235E-1,9.483065097271E-1,1.529540703499E0));
#115=CARTESIAN_POINT('',(9.879453403005E-1,7.418671140025E-1,1.505929366088E0));
#116=CARTESIAN_POINT('',(1.085366398018E0,5.133333056481E-1,1.479790998265E0));
#117=CARTESIAN_POINT('',(1.131345753089E0,2.803313488169E-1,1.453141589605E0));
#118=CARTESIAN_POINT('',(1.131219037482E0,1.321380135223E-1,1.436192097822E0));
#119=CARTESIAN_POINT('',(1.125E0,6.156899935459E-2,1.428120824418E0));
#121=DIRECTION('',(0.E0,9.935227530579E-1,1.136333540657E-1));
#122=VECTOR('',#121,3.824564318579E0);
#123=CARTESIAN_POINT('',(-1.125E0,-3.738222671687E0,9.935227530579E-1));
#124=LINE('',#123,#122);
#125=CARTESIAN_POINT('',(-2.125E0,-3.724018502429E0,8.693324089257E-1));
#126=DIRECTION('',(0.E0,9.935227530579E-1,1.136333540657E-1));
#127=DIRECTION('',(-1.E0,0.E0,0.E0));
#128=AXIS2_PLACEMENT_3D('',#125,#126,#127);
#130=CARTESIAN_POINT('',(-7.5E-1,2.874486467961E0,0.E0));
#131=DIRECTION('',(1.E0,0.E0,0.E0));
#132=DIRECTION('',(0.E0,1.761671023833E-1,-9.843602755282E-1));
#133=AXIS2_PLACEMENT_3D('',#130,#131,#132);
#135=DIRECTION('',(1.E0,0.E0,0.E0));
#136=VECTOR('',#135,1.5E0);
#137=CARTESIAN_POINT('',(-7.5E-1,4.596965323475E0,-3.082652931414E-1));
#138=LINE('',#137,#136);
#139=CARTESIAN_POINT('',(7.5E-1,2.874486467961E0,0.E0));
#140=DIRECTION('',(1.E0,0.E0,0.E0));
#141=DIRECTION('',(0.E0,1.761671023833E-1,-9.843602755282E-1));
#142=AXIS2_PLACEMENT_3D('',#139,#140,#141);
#144=DIRECTION('',(1.E0,0.E0,0.E0));
#145=VECTOR('',#144,1.5E0);
#146=CARTESIAN_POINT('',(-7.5E-1,3.182751761102E0,-1.722478855514E0));
#147=LINE('',#146,#145);
#148=CARTESIAN_POINT('',(-2.25E0,3.363907889589E0,1.680008205546E0));
#149=CARTESIAN_POINT('',(-2.25E0,3.347441315433E0,1.684805261957E0));
#150=CARTESIAN_POINT('',(-2.248957306103E0,3.316089265020E0,1.693412469399E0));
#151=CARTESIAN_POINT('',(-2.245640222857E0,3.274327281216E0,1.703711884978E0));
#152=CARTESIAN_POINT('',(-2.241340770529E0,3.236842821413E0,1.712044965400E0));
#153=CARTESIAN_POINT('',(-2.236503195606E0,3.203031909715E0,1.718830169947E0));
#154=CARTESIAN_POINT('',(-2.231351032373E0,3.172112016724E0,1.724436823756E0));
#155=CARTESIAN_POINT('',(-2.226007320973E0,3.143546684512E0,1.729110654056E0));
#156=CARTESIAN_POINT('',(-2.220614453016E0,3.117266052533E0,1.732984259896E0));
#157=CARTESIAN_POINT('',(-2.215256493840E0,3.093084519703E0,1.736190553295E0));
#158=CARTESIAN_POINT('',(-2.209989298469E0,3.070835304122E0,1.738839143717E0));
#159=CARTESIAN_POINT('',(-2.204843161841E0,3.050341866572E0,1.741024423104E0));
#160=CARTESIAN_POINT('',(-2.199829854866E0,3.031431844919E0,1.742825177880E0));
#161=CARTESIAN_POINT('',(-2.194968989137E0,3.014014846918E0,1.744301070601E0));
#162=CARTESIAN_POINT('',(-2.190267579696E0,2.997987610212E0,1.745504898696E0));
#163=CARTESIAN_POINT('',(-2.185725350813E0,2.983250002556E0,1.746481647432E0));
#164=CARTESIAN_POINT('',(-2.181331294047E0,2.969691361259E0,1.747270243488E0));
#165=CARTESIAN_POINT('',(-2.177081125117E0,2.957241918351E0,1.747901544923E0));
#166=CARTESIAN_POINT('',(-2.172967439480E0,2.945835124213E0,1.748402114239E0));
#167=CARTESIAN_POINT('',(-2.168978024032E0,2.935403897763E0,1.748794732846E0));
#168=CARTESIAN_POINT('',(-2.165091488908E0,2.925867747876E0,1.749099433831E0));
#169=CARTESIAN_POINT('',(-2.161241759662E0,2.917069146023E0,1.749334474962E0));
#170=CARTESIAN_POINT('',(-2.157461041295E0,2.909097402588E0,1.749509069986E0));
#171=CARTESIAN_POINT('',(-2.153742125034E0,2.901942232347E0,1.749634891067E0));
#172=CARTESIAN_POINT('',(-2.150064000618E0,2.895576746394E0,1.749722275192E0));
#173=CARTESIAN_POINT('',(-2.146377286769E0,2.889949733225E0,1.749780257732E0));
#174=CARTESIAN_POINT('',(-2.142646021084E0,2.885067734475E0,1.749815917773E0));
#175=CARTESIAN_POINT('',(-2.138734707320E0,2.880855096312E0,1.749835832174E0));
#176=CARTESIAN_POINT('',(-2.134367922491E0,2.877322296077E0,1.749844505994E0));
#177=CARTESIAN_POINT('',(-2.129727914294E0,2.875016774704E0,1.749846081376E0));
#178=CARTESIAN_POINT('',(-2.126591019595E0,2.874486467961E0,1.749845964264E0));
#179=CARTESIAN_POINT('',(-2.125E0,2.874486467961E0,1.749845964264E0));
#181=CARTESIAN_POINT('',(-2.125E0,2.874486467961E0,-1.749845964264E0));
#182=CARTESIAN_POINT('',(-2.126549874246E0,2.874486467961E0,-1.749845964264E0));
#183=CARTESIAN_POINT('',(-2.129623810860E0,2.874991028270E0,-1.749846070123E0));
#184=CARTESIAN_POINT('',(-2.134207960718E0,2.877220406818E0,-1.749844629428E0));
#185=CARTESIAN_POINT('',(-2.138614194792E0,2.880732198147E0,-1.749836301366E0));
#186=CARTESIAN_POINT('',(-2.142712607522E0,2.885123814025E0,-1.749815894522E0));
#187=CARTESIAN_POINT('',(-2.146786809821E0,2.890510321629E0,-1.749775815246E0));
#188=CARTESIAN_POINT('',(-2.150746740601E0,2.896688342435E0,-1.749709137175E0));
#189=CARTESIAN_POINT('',(-2.154560812477E0,2.903454929606E0,-1.749610817212E0));
#190=CARTESIAN_POINT('',(-2.158234325592E0,2.910679117021E0,-1.749476987636E0));
#191=CARTESIAN_POINT('',(-2.161883456709E0,2.918499068364E0,-1.749298681677E0));
#192=CARTESIAN_POINT('',(-2.165558454322E0,2.926988694718E0,-1.749065624667E0));
#193=CARTESIAN_POINT('',(-2.169308940963E0,2.936251959146E0,-1.748764473213E0));
#194=CARTESIAN_POINT('',(-2.173171124432E0,2.946391312712E0,-1.748378715339E0));
#195=CARTESIAN_POINT('',(-2.177172975022E0,2.957509222797E0,-1.747888252139E0));
#196=CARTESIAN_POINT('',(-2.181334557949E0,2.969705194143E0,-1.747268910413E0));
#197=CARTESIAN_POINT('',(-2.185663098473E0,2.983055703606E0,-1.746493265243E0));
#198=CARTESIAN_POINT('',(-2.190169476367E0,2.997662538172E0,-1.745527610611E0));
#199=CARTESIAN_POINT('',(-2.194861792180E0,3.013640376864E0,-1.744330913476E0));
#200=CARTESIAN_POINT('',(-2.199727353256E0,3.031054680225E0,-1.742859148011E0));
#201=CARTESIAN_POINT('',(-2.204751155563E0,3.049984909194E0,-1.741060508794E0));
#202=CARTESIAN_POINT('',(-2.209903923083E0,3.070485269334E0,-1.738878613638E0));
#203=CARTESIAN_POINT('',(-2.215173108643E0,3.092721004676E0,-1.736236195555E0));
#204=CARTESIAN_POINT('',(-2.220532569720E0,3.116882847626E0,-1.733037803877E0));
#205=CARTESIAN_POINT('',(-2.225929184187E0,3.143148787704E0,-1.729172468175E0));
#206=CARTESIAN_POINT('',(-2.231281086118E0,3.171716270276E0,-1.724505166749E0));
#207=CARTESIAN_POINT('',(-2.236447161871E0,3.202668292152E0,-1.718899924423E0));
#208=CARTESIAN_POINT('',(-2.241302102092E0,3.236538495904E0,-1.712109851825E0));
#209=CARTESIAN_POINT('',(-2.245619700239E0,3.274105715782E0,-1.703764619825E0));
#210=CARTESIAN_POINT('',(-2.248952173979E0,3.315970519128E0,-1.693444447034E0));
#211=CARTESIAN_POINT('',(-2.25E0,3.347400112671E0,-1.684817265180E0));
#212=CARTESIAN_POINT('',(-2.25E0,3.363907889589E0,-1.680008205546E0));
#214=DIRECTION('',(1.E0,0.E0,0.E0));
#215=VECTOR('',#214,4.25E0);
#216=CARTESIAN_POINT('',(-2.125E0,2.874486467961E0,-1.749845964264E0));
#217=LINE('',#216,#215);
#218=CARTESIAN_POINT('',(2.25E0,3.363907889589E0,-1.680008205546E0));
#219=CARTESIAN_POINT('',(2.25E0,3.347441502406E0,-1.684805207487E0));
#220=CARTESIAN_POINT('',(2.248957319884E0,3.316089978482E0,-1.693412266950E0));
#221=CARTESIAN_POINT('',(2.245640492801E0,3.274330289005E0,-1.703711163174E0));
#222=CARTESIAN_POINT('',(2.241341257596E0,3.236846533241E0,-1.712044185290E0));
#223=CARTESIAN_POINT('',(2.236503400335E0,3.203032959943E0,-1.718830003473E0));
#224=CARTESIAN_POINT('',(2.231349846123E0,3.172104879927E0,-1.724438121208E0));
#225=CARTESIAN_POINT('',(2.226003444014E0,3.143526473442E0,-1.729113876276E0));
#226=CARTESIAN_POINT('',(2.220607131801E0,3.117231363040E0,-1.732989189602E0));
#227=CARTESIAN_POINT('',(2.215245577416E0,3.093036600995E0,-1.736196637380E0));
#228=CARTESIAN_POINT('',(2.209975450433E0,3.070778365566E0,-1.738845597956E0));
#229=CARTESIAN_POINT('',(2.204827822508E0,3.050282431686E0,-1.741030414896E0));
#230=CARTESIAN_POINT('',(2.199815765614E0,3.031380216247E0,-1.742829783816E0));
#231=CARTESIAN_POINT('',(2.194958266095E0,3.013977598701E0,-1.744303998427E0));
#232=CARTESIAN_POINT('',(2.190261132569E0,2.997966400581E0,-1.745506353509E0));
#233=CARTESIAN_POINT('',(2.185722825307E0,2.983242170388E0,-1.746482108003E0));
#234=CARTESIAN_POINT('',(2.181330823659E0,2.969690008590E0,-1.747270308480E0));
#235=CARTESIAN_POINT('',(2.177081226421E0,2.957242206427E0,-1.747901531632E0));
#236=CARTESIAN_POINT('',(2.172967052908E0,2.945834036071E0,-1.748402163541E0));
#237=CARTESIAN_POINT('',(2.168976591599E0,2.935400207504E0,-1.748794866106E0));
#238=CARTESIAN_POINT('',(2.165089146362E0,2.925862153376E0,-1.749099600273E0));
#239=CARTESIAN_POINT('',(2.161238962455E0,2.917062980307E0,-1.749334625057E0));
#240=CARTESIAN_POINT('',(2.157458167474E0,2.909091607654E0,-1.749509183539E0));
#241=CARTESIAN_POINT('',(2.153739498036E0,2.901937451505E0,-1.749634964493E0));
#242=CARTESIAN_POINT('',(2.150061861424E0,2.895573297125E0,-1.749722315185E0));
#243=CARTESIAN_POINT('',(2.146375777302E0,2.889947642099E0,-1.749780274903E0));
#244=CARTESIAN_POINT('',(2.142645201328E0,2.885066803558E0,-1.749815922624E0));
#245=CARTESIAN_POINT('',(2.138734351977E0,2.880854794367E0,-1.749835832978E0));
#246=CARTESIAN_POINT('',(2.134367838960E0,2.877322256483E0,-1.749844505994E0));
#247=CARTESIAN_POINT('',(2.129727882084E0,2.875016767162E0,-1.749846081385E0));
#248=CARTESIAN_POINT('',(2.126591017544E0,2.874486467961E0,-1.749845964264E0));
#249=CARTESIAN_POINT('',(2.125E0,2.874486467961E0,-1.749845964264E0));
#251=CARTESIAN_POINT('',(2.125E0,2.874486467961E0,1.749845964264E0));
#252=CARTESIAN_POINT('',(2.126549856499E0,2.874486467961E0,1.749845964264E0));
#253=CARTESIAN_POINT('',(2.129623798704E0,2.874991023300E0,1.749846070114E0));
#254=CARTESIAN_POINT('',(2.134207997843E0,2.877220413824E0,1.749844629463E0));
#255=CARTESIAN_POINT('',(2.138614567151E0,2.880732499907E0,1.749836300688E0));
#256=CARTESIAN_POINT('',(2.142713584782E0,2.885124930553E0,1.749815888687E0));
#257=CARTESIAN_POINT('',(2.146788316571E0,2.890512470293E0,1.749775796561E0));
#258=CARTESIAN_POINT('',(2.150748286533E0,2.896690944072E0,1.749709104057E0));
#259=CARTESIAN_POINT('',(2.154561676876E0,2.903456618419E0,1.749610786818E0));
#260=CARTESIAN_POINT('',(2.158233805450E0,2.910678138967E0,1.749477003230E0));
#261=CARTESIAN_POINT('',(2.161881407878E0,2.918494584801E0,1.749298788825E0));
#262=CARTESIAN_POINT('',(2.165555089051E0,2.926980705074E0,1.749065859020E0));
#263=CARTESIAN_POINT('',(2.169304771334E0,2.936241353555E0,1.748764844269E0));
#264=CARTESIAN_POINT('',(2.173166907890E0,2.946379893808E0,1.748379185596E0));
#265=CARTESIAN_POINT('',(2.177169674148E0,2.957499721602E0,1.747888711418E0));
#266=CARTESIAN_POINT('',(2.181333305866E0,2.969701293675E0,1.747269141257E0));
#267=CARTESIAN_POINT('',(2.185665133106E0,2.983061926735E0,1.746492913542E0));
#268=CARTESIAN_POINT('',(2.190176178612E0,2.997684547079E0,1.745526108161E0));
#269=CARTESIAN_POINT('',(2.194873098818E0,3.013679617175E0,1.744327835852E0));
#270=CARTESIAN_POINT('',(2.199741995857E0,3.031108304354E0,1.742854370746E0));
#271=CARTESIAN_POINT('',(2.204766698265E0,3.050045120996E0,1.741054441033E0));
#272=CARTESIAN_POINT('',(2.209917392994E0,3.070540647928E0,1.738872337368E0));
#273=CARTESIAN_POINT('',(2.215183457812E0,3.092766414590E0,1.736230433809E0));
#274=CARTESIAN_POINT('',(2.220539326030E0,3.116914851371E0,1.733033257593E0));
#275=CARTESIAN_POINT('',(2.225932617037E0,3.143166693271E0,1.729169611834E0));
#276=CARTESIAN_POINT('',(2.231281982001E0,3.171721733066E0,1.724504163119E0));
#277=CARTESIAN_POINT('',(2.236446782616E0,3.202666097529E0,1.718900311894E0));
#278=CARTESIAN_POINT('',(2.241301513461E0,3.236533985111E0,1.712110802231E0));
#279=CARTESIAN_POINT('',(2.245619378786E0,3.274102160147E0,1.703765471514E0));
#280=CARTESIAN_POINT('',(2.248952145645E0,3.315969483236E0,1.693444735945E0));
#281=CARTESIAN_POINT('',(2.25E0,3.347399812961E0,1.684817352492E0));
#282=CARTESIAN_POINT('',(2.25E0,3.363907889589E0,1.680008205546E0));
#284=CARTESIAN_POINT('',(-7.5E-1,5.988501316349E0,-3.114014848388E0));
#285=DIRECTION('',(-1.E0,0.E0,0.E0));
#286=DIRECTION('',(0.E0,-1.E0,0.E0));
#287=AXIS2_PLACEMENT_3D('',#284,#285,#286);
#289=CARTESIAN_POINT('',(-7.5E-1,5.988501316349E0,-3.114014848388E0));
#290=DIRECTION('',(-1.E0,0.E0,0.E0));
#291=DIRECTION('',(0.E0,1.E0,0.E0));
#292=AXIS2_PLACEMENT_3D('',#289,#290,#291);
#294=DIRECTION('',(0.E0,7.071067811865E-1,-7.071067811865E-1));
#295=VECTOR('',#294,3.717929073653E0);
#296=CARTESIAN_POINT('',(-7.5E-1,3.182751761102E0,-1.722478855514E0));
#297=LINE('',#296,#295);
#298=DIRECTION('',(0.E0,7.071067811865E-1,7.071067811865E-1));
#299=VECTOR('',#298,2.E0);
#300=CARTESIAN_POINT('',(-7.5E-1,5.811724621052E0,-4.351451715465E0));
#301=LINE('',#300,#299);
#302=DIRECTION('',(0.E0,-7.071067811865E-1,7.071067811865E-1));
#303=VECTOR('',#302,3.717929073653E0);
#304=CARTESIAN_POINT('',(-7.5E-1,7.225938183425E0,-2.937238153092E0));
#305=LINE('',#304,#303);
#306=DIRECTION('',(1.E0,0.E0,0.E0));
#307=VECTOR('',#306,1.5E0);
#308=CARTESIAN_POINT('',(-7.5E-1,5.488501316349E0,-3.114014848388E0));
#309=LINE('',#308,#307);
#310=DIRECTION('',(1.E0,0.E0,0.E0));
#311=VECTOR('',#310,1.5E0);
#312=CARTESIAN_POINT('',(-7.5E-1,6.488501316349E0,-3.114014848388E0));
#313=LINE('',#312,#311);
#314=CARTESIAN_POINT('',(7.5E-1,5.988501316349E0,-3.114014848388E0));
#315=DIRECTION('',(-1.E0,0.E0,0.E0));
#316=DIRECTION('',(0.E0,-1.E0,0.E0));
#317=AXIS2_PLACEMENT_3D('',#314,#315,#316);
#319=CARTESIAN_POINT('',(7.5E-1,5.988501316349E0,-3.114014848388E0));
#320=DIRECTION('',(-1.E0,0.E0,0.E0));
#321=DIRECTION('',(0.E0,1.E0,0.E0));
#322=AXIS2_PLACEMENT_3D('',#319,#320,#321);
#324=DIRECTION('',(0.E0,-7.071067811865E-1,7.071067811865E-1));
#325=VECTOR('',#324,3.717929073653E0);
#326=CARTESIAN_POINT('',(7.5E-1,7.225938183425E0,-2.937238153092E0));
#327=LINE('',#326,#325);
#328=DIRECTION('',(0.E0,7.071067811865E-1,7.071067811865E-1));
#329=VECTOR('',#328,2.E0);
#330=CARTESIAN_POINT('',(7.5E-1,5.811724621052E0,-4.351451715465E0));
#331=LINE('',#330,#329);
#332=DIRECTION('',(0.E0,7.071067811865E-1,-7.071067811865E-1));
#333=VECTOR('',#332,3.717929073653E0);
#334=CARTESIAN_POINT('',(7.5E-1,3.182751761102E0,-1.722478855514E0));
#335=LINE('',#334,#333);
#336=DIRECTION('',(1.E0,0.E0,0.E0));
#337=VECTOR('',#336,1.5E0);
#338=CARTESIAN_POINT('',(-7.5E-1,7.225938183425E0,-2.937238153092E0));
#339=LINE('',#338,#337);
#340=DIRECTION('',(1.E0,0.E0,0.E0));
#341=VECTOR('',#340,1.5E0);
#342=CARTESIAN_POINT('',(-7.5E-1,5.811724621052E0,-4.351451715465E0));
#343=LINE('',#342,#341);
#344=CARTESIAN_POINT('',(-2.125E0,-3.724018502429E0,-8.693324089257E-1));
#345=DIRECTION('',(0.E0,-9.935227530579E-1,1.136333540657E-1));
#346=DIRECTION('',(-1.E0,0.E0,0.E0));
#347=AXIS2_PLACEMENT_3D('',#344,#345,#346);
#349=CARTESIAN_POINT('',(2.125E0,-3.624589317622E0,0.E0));
#350=DIRECTION('',(1.E0,0.E0,0.E0));
#351=DIRECTION('',(0.E0,-1.136333540657E-1,9.935227530579E-1));
#352=AXIS2_PLACEMENT_3D('',#349,#350,#351);
#354=CARTESIAN_POINT('',(1.125E0,-3.624589317622E0,0.E0));
#355=DIRECTION('',(-1.E0,0.E0,0.E0));
#356=DIRECTION('',(0.E0,-1.136333540657E-1,-9.935227530579E-1));
#357=AXIS2_PLACEMENT_3D('',#354,#355,#356);
#359=DIRECTION('',(1.E0,3.734790254839E-13,4.274358644807E-14));
#360=VECTOR('',#359,1.E0);
#361=CARTESIAN_POINT('',(1.125E0,-3.738222671687E0,9.935227530579E-1));
#362=LINE('',#361,#360);
#363=CARTESIAN_POINT('',(-2.125E0,-3.624589317622E0,0.E0));
#364=DIRECTION('',(-1.E0,0.E0,0.E0));
#365=DIRECTION('',(0.E0,-1.136333540657E-1,-9.935227530579E-1));
#366=AXIS2_PLACEMENT_3D('',#363,#364,#365);
#368=DIRECTION('',(1.E0,-1.865174681370E-13,-2.142730437527E-14));
#369=VECTOR('',#368,1.E0);
#370=CARTESIAN_POINT('',(-2.125E0,-3.738222671687E0,9.935227530579E-1));
#371=LINE('',#370,#369);
#372=CARTESIAN_POINT('',(-1.125E0,-3.624589317622E0,0.E0));
#373=DIRECTION('',(1.E0,0.E0,0.E0));
#374=DIRECTION('',(0.E0,-1.136333540656E-1,9.935227530579E-1));
#375=AXIS2_PLACEMENT_3D('',#372,#373,#374);
#377=CARTESIAN_POINT('',(2.125E0,-3.724018502429E0,8.693324089257E-1));
#378=DIRECTION('',(0.E0,-9.935227530579E-1,-1.136333540657E-1));
#379=DIRECTION('',(1.E0,0.E0,0.E0));
#380=AXIS2_PLACEMENT_3D('',#377,#378,#379);
#382=CARTESIAN_POINT('',(2.25E0,-3.624589317622E0,0.E0));
#383=DIRECTION('',(-1.E0,0.E0,0.E0));
#384=DIRECTION('',(0.E0,-1.E0,0.E0));
#385=AXIS2_PLACEMENT_3D('',#382,#383,#384);
#387=CARTESIAN_POINT('',(2.25E0,-3.624589317622E0,0.E0));
#388=DIRECTION('',(-1.E0,0.E0,0.E0));
#389=DIRECTION('',(0.E0,1.E0,0.E0));
#390=AXIS2_PLACEMENT_3D('',#387,#388,#389);
#392=CARTESIAN_POINT('',(2.25E0,2.874486467961E0,0.E0));
#393=DIRECTION('',(1.E0,0.E0,0.E0));
#394=DIRECTION('',(0.E0,-1.E0,0.E0));
#395=AXIS2_PLACEMENT_3D('',#392,#393,#394);
#397=CARTESIAN_POINT('',(2.25E0,2.874486467961E0,0.E0));
#398=DIRECTION('',(1.E0,0.E0,0.E0));
#399=DIRECTION('',(0.E0,1.E0,0.E0));
#400=AXIS2_PLACEMENT_3D('',#397,#398,#399);
#402=DIRECTION('',(0.E0,9.935227530579E-1,-1.136333540657E-1));
#403=VECTOR('',#402,7.134135952299E0);
#404=CARTESIAN_POINT('',(2.25E0,-3.724018502429E0,-8.693324089257E-1));
#405=LINE('',#404,#403);
#406=CARTESIAN_POINT('',(2.25E0,-3.624589317622E0,0.E0));
#407=DIRECTION('',(1.E0,0.E0,0.E0));
#408=DIRECTION('',(0.E0,-1.136333540657E-1,9.935227530579E-1));
#409=AXIS2_PLACEMENT_3D('',#406,#407,#408);
#411=DIRECTION('',(0.E0,-9.935227530579E-1,-1.136333540657E-1));
#412=VECTOR('',#411,7.134135952299E0);
#413=CARTESIAN_POINT('',(2.25E0,3.363907889589E0,1.680008205546E0));
#414=LINE('',#413,#412);
#415=CARTESIAN_POINT('',(2.25E0,2.874486467961E0,0.E0));
#416=DIRECTION('',(1.E0,0.E0,0.E0));
#417=DIRECTION('',(0.E0,2.796940025714E-1,-9.600891963383E-1));
#418=AXIS2_PLACEMENT_3D('',#415,#416,#417);
#420=DIRECTION('',(-1.E0,0.E0,0.E0));
#421=VECTOR('',#420,1.66E0);
#422=CARTESIAN_POINT('',(2.25E0,2.249486467961E0,0.E0));
#423=LINE('',#422,#421);
#424=DIRECTION('',(-1.E0,0.E0,0.E0));
#425=VECTOR('',#424,1.66E0);
#426=CARTESIAN_POINT('',(2.25E0,3.499486467961E0,0.E0));
#427=LINE('',#426,#425);
#428=CARTESIAN_POINT('',(5.9E-1,2.874486467961E0,0.E0));
#429=DIRECTION('',(-1.E0,0.E0,0.E0));
#430=DIRECTION('',(0.E0,1.E0,0.E0));
#431=AXIS2_PLACEMENT_3D('',#428,#429,#430);
#433=CARTESIAN_POINT('',(5.9E-1,2.874486467961E0,0.E0));
#434=DIRECTION('',(-1.E0,0.E0,0.E0));
#435=DIRECTION('',(0.E0,-1.E0,0.E0));
#436=AXIS2_PLACEMENT_3D('',#433,#434,#435);
#438=CARTESIAN_POINT('',(5.9E-1,2.874486467961E0,0.E0));
#439=DIRECTION('',(1.E0,0.E0,0.E0));
#440=DIRECTION('',(0.E0,-1.E0,0.E0));
#441=AXIS2_PLACEMENT_3D('',#438,#439,#440);
#443=DIRECTION('',(1.E0,0.E0,0.E0));
#444=VECTOR('',#443,2.84E0);
#445=CARTESIAN_POINT('',(-2.25E0,3.374486467961E0,0.E0));
#446=LINE('',#445,#444);
#447=CARTESIAN_POINT('',(5.9E-1,2.874486467961E0,0.E0));
#448=DIRECTION('',(1.E0,0.E0,0.E0));
#449=DIRECTION('',(0.E0,1.E0,0.E0));
#450=AXIS2_PLACEMENT_3D('',#447,#448,#449);
#452=DIRECTION('',(1.E0,0.E0,0.E0));
#453=VECTOR('',#452,2.84E0);
#454=CARTESIAN_POINT('',(-2.25E0,2.374486467961E0,0.E0));
#455=LINE('',#454,#453);
#456=CARTESIAN_POINT('',(2.125E0,-3.724018502429E0,-8.693324089257E-1));
#457=DIRECTION('',(0.E0,9.935227530579E-1,-1.136333540657E-1));
#458=DIRECTION('',(1.E0,0.E0,0.E0));
#459=AXIS2_PLACEMENT_3D('',#456,#457,#458);
#461=DIRECTION('',(0.E0,-9.935227530579E-1,1.136333540657E-1));
#462=VECTOR('',#461,6.655820532841E0);
#463=CARTESIAN_POINT('',(-2.125E0,2.874486467961E0,-1.749845964264E0));
#464=LINE('',#463,#462);
#465=DIRECTION('',(1.E0,-6.998845947237E-13,8.004708007547E-14));
#466=VECTOR('',#465,1.E0);
#467=CARTESIAN_POINT('',(-2.125E0,-3.738222671687E0,-9.935227530580E-1));
#468=LINE('',#467,#466);
#469=DIRECTION('',(0.E0,9.935227530579E-1,-1.136333540657E-1));
#470=VECTOR('',#469,3.5E0);
#471=CARTESIAN_POINT('',(-1.125E0,-3.738222671687E0,-9.935227530579E-1));
#472=LINE('',#471,#470);
#473=CARTESIAN_POINT('',(0.E0,-1.604360055546E-1,-1.402729183160E0));
#474=DIRECTION('',(0.E0,-1.136333540657E-1,-9.935227530579E-1));
#475=DIRECTION('',(-9.959853421494E-1,-8.893664873256E-2,1.017205661746E-2));
#476=AXIS2_PLACEMENT_3D('',#473,#474,#475);
#478=DIRECTION('',(0.E0,9.935227530579E-1,-1.136333540657E-1));
#479=VECTOR('',#478,3.5E0);
#480=CARTESIAN_POINT('',(1.125E0,-3.738222671687E0,-9.935227530579E-1));
#481=LINE('',#480,#479);
#482=DIRECTION('',(1.E0,3.534950110406E-13,-4.030109579389E-14));
#483=VECTOR('',#482,1.E0);
#484=CARTESIAN_POINT('',(1.125E0,-3.738222671687E0,-9.935227530579E-1));
#485=LINE('',#484,#483);
#486=DIRECTION('',(0.E0,9.935227530579E-1,-1.136333540657E-1));
#487=VECTOR('',#486,6.655820532841E0);
#488=CARTESIAN_POINT('',(2.125E0,-3.738222671687E0,-9.935227530580E-1));
#489=LINE('',#488,#487);
#490=DIRECTION('',(0.E0,1.136333540657E-1,9.935227530579E-1));
#491=VECTOR('',#490,2.837741066350E0);
#492=CARTESIAN_POINT('',(-1.125E0,-2.608930359846E-1,-1.391239492288E0));
#493=LINE('',#492,#491);
#494=CARTESIAN_POINT('',(-2.25E0,-4.124589317622E0,0.E0));
#495=CARTESIAN_POINT('',(-2.25E0,-3.124589317622E0,0.E0));
#496=VERTEX_POINT('',#494);
#497=VERTEX_POINT('',#495);
#498=CARTESIAN_POINT('',(-2.25E0,3.374486467961E0,0.E0));
#499=CARTESIAN_POINT('',(-2.25E0,2.374486467961E0,0.E0));
#500=VERTEX_POINT('',#498);
#501=VERTEX_POINT('',#499);
#502=CARTESIAN_POINT('',(2.25E0,-4.124589317622E0,0.E0));
#503=CARTESIAN_POINT('',(2.25E0,-3.124589317622E0,0.E0));
#504=VERTEX_POINT('',#502);
#505=VERTEX_POINT('',#503);
#506=CARTESIAN_POINT('',(-1.125E0,-3.124589317622E0,0.E0));
#507=CARTESIAN_POINT('',(-1.125E0,-4.124589317622E0,0.E0));
#508=VERTEX_POINT('',#506);
#509=VERTEX_POINT('',#507);
#510=CARTESIAN_POINT('',(1.125E0,-3.124589317622E0,0.E0));
#511=CARTESIAN_POINT('',(1.125E0,-4.124589317622E0,0.E0));
#512=VERTEX_POINT('',#510);
#513=VERTEX_POINT('',#511);
#514=CARTESIAN_POINT('',(-1.125E0,-3.738222671687E0,9.935227530579E-1));
#515=CARTESIAN_POINT('',(-1.125E0,6.156899935458E-2,1.428120824418E0));
#516=VERTEX_POINT('',#514);
#517=VERTEX_POINT('',#515);
#518=VERTEX_POINT('',#119);
#519=CARTESIAN_POINT('',(1.125E0,-3.738222671687E0,9.935227530579E-1));
#520=VERTEX_POINT('',#519);
#521=CARTESIAN_POINT('',(-1.125E0,-3.738222671687E0,-9.935227530579E-1));
#522=VERTEX_POINT('',#521);
#523=CARTESIAN_POINT('',(1.125E0,-3.738222671687E0,-9.935227530579E-1));
#524=VERTEX_POINT('',#523);
#525=CARTESIAN_POINT('',(-1.125E0,-2.608930359846E-1,-1.391239492288E0));
#526=VERTEX_POINT('',#525);
#527=CARTESIAN_POINT('',(1.125E0,-2.608930359846E-1,-1.391239492288E0));
#528=VERTEX_POINT('',#527);
#529=CARTESIAN_POINT('',(-7.5E-1,5.488501316349E0,-3.114014848388E0));
#530=CARTESIAN_POINT('',(-7.5E-1,6.488501316349E0,-3.114014848388E0));
#531=VERTEX_POINT('',#529);
#532=VERTEX_POINT('',#530);
#533=CARTESIAN_POINT('',(-7.5E-1,5.811724621052E0,-4.351451715465E0));
#534=CARTESIAN_POINT('',(-7.5E-1,7.225938183425E0,-2.937238153092E0));
#535=VERTEX_POINT('',#533);
#536=VERTEX_POINT('',#534);
#537=CARTESIAN_POINT('',(7.5E-1,5.488501316349E0,-3.114014848388E0));
#538=CARTESIAN_POINT('',(7.5E-1,6.488501316349E0,-3.114014848388E0));
#539=VERTEX_POINT('',#537);
#540=VERTEX_POINT('',#538);
#541=CARTESIAN_POINT('',(7.5E-1,5.811724621052E0,-4.351451715465E0));
#542=CARTESIAN_POINT('',(7.5E-1,7.225938183425E0,-2.937238153092E0));
#543=VERTEX_POINT('',#541);
#544=VERTEX_POINT('',#542);
#545=CARTESIAN_POINT('',(-7.5E-1,3.182751761102E0,-1.722478855514E0));
#546=CARTESIAN_POINT('',(-7.5E-1,4.596965323475E0,-3.082652931414E-1));
#547=VERTEX_POINT('',#545);
#548=VERTEX_POINT('',#546);
#549=CARTESIAN_POINT('',(7.5E-1,3.182751761102E0,-1.722478855514E0));
#550=CARTESIAN_POINT('',(7.5E-1,4.596965323475E0,-3.082652931414E-1));
#551=VERTEX_POINT('',#549);
#552=VERTEX_POINT('',#550);
#553=CARTESIAN_POINT('',(5.9E-1,3.499486467961E0,0.E0));
#554=CARTESIAN_POINT('',(5.9E-1,2.249486467961E0,0.E0));
#555=VERTEX_POINT('',#553);
#556=VERTEX_POINT('',#554);
#557=CARTESIAN_POINT('',(5.9E-1,2.374486467961E0,0.E0));
#558=CARTESIAN_POINT('',(5.9E-1,3.374486467961E0,0.E0));
#559=VERTEX_POINT('',#557);
#560=VERTEX_POINT('',#558);
#561=CARTESIAN_POINT('',(2.25E0,2.249486467961E0,0.E0));
#562=VERTEX_POINT('',#561);
#563=CARTESIAN_POINT('',(2.25E0,3.499486467961E0,0.E0));
#564=VERTEX_POINT('',#563);
#565=VERTEX_POINT('',#218);
#566=VERTEX_POINT('',#249);
#567=CARTESIAN_POINT('',(2.125E0,-3.738222671687E0,-9.935227530580E-1));
#568=VERTEX_POINT('',#567);
#569=CARTESIAN_POINT('',(2.25E0,-3.724018502429E0,-8.693324089257E-1));
#570=VERTEX_POINT('',#569);
#571=CARTESIAN_POINT('',(2.25E0,-3.724018502429E0,8.693324089257E-1));
#572=VERTEX_POINT('',#571);
#573=CARTESIAN_POINT('',(2.125E0,-3.738222671687E0,9.935227530579E-1));
#574=VERTEX_POINT('',#573);
#575=VERTEX_POINT('',#251);
#576=VERTEX_POINT('',#282);
#577=VERTEX_POINT('',#148);
#578=VERTEX_POINT('',#179);
#579=CARTESIAN_POINT('',(-2.125E0,-3.738222671687E0,9.935227530579E-1));
#580=VERTEX_POINT('',#579);
#581=CARTESIAN_POINT('',(-2.25E0,-3.724018502429E0,8.693324089257E-1));
#582=VERTEX_POINT('',#581);
#583=CARTESIAN_POINT('',(-2.25E0,-3.724018502429E0,-8.693324089257E-1));
#584=VERTEX_POINT('',#583);
#585=CARTESIAN_POINT('',(-2.125E0,-3.738222671687E0,-9.935227530579E-1));
#586=VERTEX_POINT('',#585);
#587=VERTEX_POINT('',#181);
#588=VERTEX_POINT('',#212);
#589=CARTESIAN_POINT('',(-2.25E0,0.E0,0.E0));
#590=DIRECTION('',(1.E0,0.E0,0.E0));
#591=DIRECTION('',(0.E0,-1.E0,0.E0));
#592=AXIS2_PLACEMENT_3D('',#589,#590,#591);
#593=PLANE('',#592);
#595=ORIENTED_EDGE('',*,*,#594,.F.);
#597=ORIENTED_EDGE('',*,*,#596,.F.);
#599=ORIENTED_EDGE('',*,*,#598,.F.);
#601=ORIENTED_EDGE('',*,*,#600,.T.);
#602=EDGE_LOOP('',(#595,#597,#599,#601));
#603=FACE_OUTER_BOUND('',#602,.F.);
#605=ORIENTED_EDGE('',*,*,#604,.T.);
#607=ORIENTED_EDGE('',*,*,#606,.T.);
#608=EDGE_LOOP('',(#605,#607));
#609=FACE_BOUND('',#608,.F.);
#611=ORIENTED_EDGE('',*,*,#610,.T.);
#613=ORIENTED_EDGE('',*,*,#612,.T.);
#614=EDGE_LOOP('',(#611,#613));
#615=FACE_BOUND('',#614,.F.);
#616=ADVANCED_FACE('',(#603,#609,#615),#593,.F.);
#617=CARTESIAN_POINT('',(-2.25E0,-3.624589317622E0,0.E0));
#618=DIRECTION('',(1.E0,0.E0,0.E0));
#619=DIRECTION('',(0.E0,-1.E0,0.E0));
#620=AXIS2_PLACEMENT_3D('',#617,#618,#619);
#621=CYLINDRICAL_SURFACE('',#620,5.E-1);
#623=ORIENTED_EDGE('',*,*,#622,.F.);
#625=ORIENTED_EDGE('',*,*,#624,.F.);
#626=ORIENTED_EDGE('',*,*,#610,.F.);
#628=ORIENTED_EDGE('',*,*,#627,.T.);
#629=EDGE_LOOP('',(#623,#625,#626,#628));
#630=FACE_OUTER_BOUND('',#629,.F.);
#631=ADVANCED_FACE('',(#630),#621,.F.);
#632=CARTESIAN_POINT('',(-2.25E0,-3.624589317622E0,0.E0));
#633=DIRECTION('',(1.E0,0.E0,0.E0));
#634=DIRECTION('',(0.E0,-1.E0,0.E0));
#635=AXIS2_PLACEMENT_3D('',#632,#633,#634);
#636=CYLINDRICAL_SURFACE('',#635,5.E-1);
#638=ORIENTED_EDGE('',*,*,#637,.T.);
#640=ORIENTED_EDGE('',*,*,#639,.T.);
#642=ORIENTED_EDGE('',*,*,#641,.T.);
#644=ORIENTED_EDGE('',*,*,#643,.F.);
#645=EDGE_LOOP('',(#638,#640,#642,#644));
#646=FACE_OUTER_BOUND('',#645,.F.);
#647=ADVANCED_FACE('',(#646),#636,.F.);
#648=CARTESIAN_POINT('',(-1.125E0,-4.731745424745E0,-8.798893989923E-1));
#649=DIRECTION('',(-1.E0,0.E0,0.E0));
#650=DIRECTION('',(0.E0,9.935227530579E-1,-1.136333540657E-1));
#651=AXIS2_PLACEMENT_3D('',#648,#649,#650);
#652=PLANE('',#651);
#654=ORIENTED_EDGE('',*,*,#653,.T.);
#656=ORIENTED_EDGE('',*,*,#655,.F.);
#658=ORIENTED_EDGE('',*,*,#657,.F.);
#660=ORIENTED_EDGE('',*,*,#659,.F.);
#661=EDGE_LOOP('',(#654,#656,#658,#660));
#662=FACE_OUTER_BOUND('',#661,.F.);
#663=ORIENTED_EDGE('',*,*,#622,.T.);
#665=ORIENTED_EDGE('',*,*,#664,.T.);
#666=EDGE_LOOP('',(#663,#665));
#667=FACE_BOUND('',#666,.F.);
#668=ADVANCED_FACE('',(#662,#667),#652,.F.);
#669=CARTESIAN_POINT('',(-2.25E0,-3.624589317622E0,0.E0));
#670=DIRECTION('',(1.E0,0.E0,0.E0));
#671=DIRECTION('',(0.E0,-1.E0,0.E0));
#672=AXIS2_PLACEMENT_3D('',#669,#670,#671);
#673=CYLINDRICAL_SURFACE('',#672,5.E-1);
#674=ORIENTED_EDGE('',*,*,#664,.F.);
#675=ORIENTED_EDGE('',*,*,#627,.F.);
#676=ORIENTED_EDGE('',*,*,#612,.F.);
#677=ORIENTED_EDGE('',*,*,#624,.T.);
#678=EDGE_LOOP('',(#674,#675,#676,#677));
#679=FACE_OUTER_BOUND('',#678,.F.);
#680=ADVANCED_FACE('',(#679),#673,.F.);
#681=CARTESIAN_POINT('',(-2.25E0,-3.624589317622E0,0.E0));
#682=DIRECTION('',(1.E0,0.E0,0.E0));
#683=DIRECTION('',(0.E0,-1.E0,0.E0));
#684=AXIS2_PLACEMENT_3D('',#681,#682,#683);
#685=CYLINDRICAL_SURFACE('',#684,5.E-1);
#687=ORIENTED_EDGE('',*,*,#686,.T.);
#688=ORIENTED_EDGE('',*,*,#643,.T.);
#690=ORIENTED_EDGE('',*,*,#689,.T.);
#691=ORIENTED_EDGE('',*,*,#639,.F.);
#692=EDGE_LOOP('',(#687,#688,#690,#691));
#693=FACE_OUTER_BOUND('',#692,.F.);
#694=ADVANCED_FACE('',(#693),#685,.F.);
#695=CARTESIAN_POINT('',(1.125E0,-2.608930359846E-1,-1.391239492288E0));
#696=DIRECTION('',(1.E0,0.E0,0.E0));
#697=DIRECTION('',(0.E0,-9.935227530579E-1,1.136333540657E-1));
#698=AXIS2_PLACEMENT_3D('',#695,#696,#697);
#699=PLANE('',#698);
#701=ORIENTED_EDGE('',*,*,#700,.F.);
#703=ORIENTED_EDGE('',*,*,#702,.F.);
#705=ORIENTED_EDGE('',*,*,#704,.T.);
#707=ORIENTED_EDGE('',*,*,#706,.T.);
#708=EDGE_LOOP('',(#701,#703,#705,#707));
#709=FACE_OUTER_BOUND('',#708,.F.);
#710=ORIENTED_EDGE('',*,*,#637,.F.);
#711=ORIENTED_EDGE('',*,*,#686,.F.);
#712=EDGE_LOOP('',(#710,#711));
#713=FACE_BOUND('',#712,.F.);
#714=ADVANCED_FACE('',(#709,#713),#699,.F.);
#715=CARTESIAN_POINT('',(-2.25E0,2.874486467961E0,1.749845964264E0));
#716=DIRECTION('',(0.E0,-1.136333540657E-1,9.935227530579E-1));
#717=DIRECTION('',(0.E0,-9.935227530579E-1,-1.136333540657E-1));
#718=AXIS2_PLACEMENT_3D('',#715,#716,#717);
#719=PLANE('',#718);
#721=ORIENTED_EDGE('',*,*,#720,.T.);
#723=ORIENTED_EDGE('',*,*,#722,.T.);
#725=ORIENTED_EDGE('',*,*,#724,.T.);
#727=ORIENTED_EDGE('',*,*,#726,.F.);
#728=ORIENTED_EDGE('',*,*,#700,.T.);
#730=ORIENTED_EDGE('',*,*,#729,.F.);
#731=ORIENTED_EDGE('',*,*,#653,.F.);
#733=ORIENTED_EDGE('',*,*,#732,.F.);
#734=EDGE_LOOP('',(#721,#723,#725,#727,#728,#730,#731,#733));
#735=FACE_OUTER_BOUND('',#734,.F.);
#736=ADVANCED_FACE('',(#735),#719,.T.);
#737=CARTESIAN_POINT('',(-2.125E0,-3.732482326737E0,8.683643659279E-1));
#738=DIRECTION('',(0.E0,9.935227530579E-1,1.136333540657E-1));
#739=DIRECTION('',(-1.E0,0.E0,0.E0));
#740=AXIS2_PLACEMENT_3D('',#737,#738,#739);
#741=CYLINDRICAL_SURFACE('',#740,1.25E-1);
#743=ORIENTED_EDGE('',*,*,#742,.T.);
#744=ORIENTED_EDGE('',*,*,#720,.F.);
#746=ORIENTED_EDGE('',*,*,#745,.F.);
#747=ORIENTED_EDGE('',*,*,#594,.T.);
#748=EDGE_LOOP('',(#743,#744,#746,#747));
#749=FACE_OUTER_BOUND('',#748,.F.);
#750=ADVANCED_FACE('',(#749),#741,.T.);
#751=CARTESIAN_POINT('',(-2.25E0,2.874486467961E0,0.E0));
#752=DIRECTION('',(1.E0,0.E0,0.E0));
#753=DIRECTION('',(0.E0,-1.E0,0.E0));
#754=AXIS2_PLACEMENT_3D('',#751,#752,#753);
#755=CYLINDRICAL_SURFACE('',#754,1.749845964264E0);
#756=ORIENTED_EDGE('',*,*,#742,.F.);
#757=ORIENTED_EDGE('',*,*,#600,.F.);
#759=ORIENTED_EDGE('',*,*,#758,.F.);
#761=ORIENTED_EDGE('',*,*,#760,.T.);
#763=ORIENTED_EDGE('',*,*,#762,.F.);
#765=ORIENTED_EDGE('',*,*,#764,.T.);
#767=ORIENTED_EDGE('',*,*,#766,.F.);
#768=ORIENTED_EDGE('',*,*,#722,.F.);
#769=EDGE_LOOP('',(#756,#757,#759,#761,#763,#765,#767,#768));
#770=FACE_OUTER_BOUND('',#769,.F.);
#772=ORIENTED_EDGE('',*,*,#771,.T.);
#774=ORIENTED_EDGE('',*,*,#773,.T.);
#776=ORIENTED_EDGE('',*,*,#775,.F.);
#778=ORIENTED_EDGE('',*,*,#777,.F.);
#779=EDGE_LOOP('',(#772,#774,#776,#778));
#780=FACE_BOUND('',#779,.F.);
#781=ADVANCED_FACE('',(#770,#780),#755,.T.);
#782=CARTESIAN_POINT('',(-7.5E-1,0.E0,0.E0));
#783=DIRECTION('',(1.E0,0.E0,0.E0));
#784=DIRECTION('',(0.E0,-1.E0,0.E0));
#785=AXIS2_PLACEMENT_3D('',#782,#783,#784);
#786=PLANE('',#785);
#788=ORIENTED_EDGE('',*,*,#787,.T.);
#790=ORIENTED_EDGE('',*,*,#789,.T.);
#792=ORIENTED_EDGE('',*,*,#791,.T.);
#793=ORIENTED_EDGE('',*,*,#771,.F.);
#794=EDGE_LOOP('',(#788,#790,#792,#793));
#795=FACE_OUTER_BOUND('',#794,.F.);
#797=ORIENTED_EDGE('',*,*,#796,.T.);
#799=ORIENTED_EDGE('',*,*,#798,.T.);
#800=EDGE_LOOP('',(#797,#799));
#801=FACE_BOUND('',#800,.F.);
#802=ADVANCED_FACE('',(#795,#801),#786,.F.);
#803=CARTESIAN_POINT('',(-7.5E-1,5.988501316349E0,-3.114014848388E0));
#804=DIRECTION('',(1.E0,0.E0,0.E0));
#805=DIRECTION('',(0.E0,-1.E0,0.E0));
#806=AXIS2_PLACEMENT_3D('',#803,#804,#805);
#807=CYLINDRICAL_SURFACE('',#806,5.E-1);
#808=ORIENTED_EDGE('',*,*,#796,.F.);
#810=ORIENTED_EDGE('',*,*,#809,.T.);
#812=ORIENTED_EDGE('',*,*,#811,.T.);
#814=ORIENTED_EDGE('',*,*,#813,.F.);
#815=EDGE_LOOP('',(#808,#810,#812,#814));
#816=FACE_OUTER_BOUND('',#815,.F.);
#817=ADVANCED_FACE('',(#816),#807,.F.);
#818=CARTESIAN_POINT('',(-7.5E-1,5.988501316349E0,-3.114014848388E0));
#819=DIRECTION('',(1.E0,0.E0,0.E0));
#820=DIRECTION('',(0.E0,-1.E0,0.E0));
#821=AXIS2_PLACEMENT_3D('',#818,#819,#820);
#822=CYLINDRICAL_SURFACE('',#821,5.E-1);
#823=ORIENTED_EDGE('',*,*,#798,.F.);
#824=ORIENTED_EDGE('',*,*,#813,.T.);
#826=ORIENTED_EDGE('',*,*,#825,.T.);
#827=ORIENTED_EDGE('',*,*,#809,.F.);
#828=EDGE_LOOP('',(#823,#824,#826,#827));
#829=FACE_OUTER_BOUND('',#828,.F.);
#830=ADVANCED_FACE('',(#829),#822,.F.);
#831=CARTESIAN_POINT('',(7.5E-1,0.E0,0.E0));
#832=DIRECTION('',(1.E0,0.E0,0.E0));
#833=DIRECTION('',(0.E0,-1.E0,0.E0));
#834=AXIS2_PLACEMENT_3D('',#831,#832,#833);
#835=PLANE('',#834);
#837=ORIENTED_EDGE('',*,*,#836,.F.);
#839=ORIENTED_EDGE('',*,*,#838,.F.);
#841=ORIENTED_EDGE('',*,*,#840,.F.);
#842=ORIENTED_EDGE('',*,*,#775,.T.);
#843=EDGE_LOOP('',(#837,#839,#841,#842));
#844=FACE_OUTER_BOUND('',#843,.F.);
#845=ORIENTED_EDGE('',*,*,#811,.F.);
#846=ORIENTED_EDGE('',*,*,#825,.F.);
#847=EDGE_LOOP('',(#845,#846));
#848=FACE_BOUND('',#847,.F.);
#849=ADVANCED_FACE('',(#844,#848),#835,.T.);
#850=CARTESIAN_POINT('',(-7.5E-1,7.225938183425E0,-2.937238153092E0));
#851=DIRECTION('',(0.E0,7.071067811865E-1,7.071067811865E-1));
#852=DIRECTION('',(0.E0,-7.071067811865E-1,7.071067811865E-1));
#853=AXIS2_PLACEMENT_3D('',#850,#851,#852);
#854=PLANE('',#853);
#855=ORIENTED_EDGE('',*,*,#773,.F.);
#856=ORIENTED_EDGE('',*,*,#791,.F.);
#858=ORIENTED_EDGE('',*,*,#857,.T.);
#859=ORIENTED_EDGE('',*,*,#836,.T.);
#860=EDGE_LOOP('',(#855,#856,#858,#859));
#861=FACE_OUTER_BOUND('',#860,.F.);
#862=ADVANCED_FACE('',(#861),#854,.T.);
#863=CARTESIAN_POINT('',(-7.5E-1,5.811724621052E0,-4.351451715465E0));
#864=DIRECTION('',(0.E0,7.071067811865E-1,-7.071067811865E-1));
#865=DIRECTION('',(0.E0,7.071067811865E-1,7.071067811865E-1));
#866=AXIS2_PLACEMENT_3D('',#863,#864,#865);
#867=PLANE('',#866);
#868=ORIENTED_EDGE('',*,*,#789,.F.);
#870=ORIENTED_EDGE('',*,*,#869,.T.);
#871=ORIENTED_EDGE('',*,*,#838,.T.);
#872=ORIENTED_EDGE('',*,*,#857,.F.);
#873=EDGE_LOOP('',(#868,#870,#871,#872));
#874=FACE_OUTER_BOUND('',#873,.F.);
#875=ADVANCED_FACE('',(#874),#867,.T.);
#876=CARTESIAN_POINT('',(-7.5E-1,3.182751761102E0,-1.722478855514E0));
#877=DIRECTION('',(0.E0,-7.071067811865E-1,-7.071067811865E-1));
#878=DIRECTION('',(0.E0,7.071067811865E-1,-7.071067811865E-1));
#879=AXIS2_PLACEMENT_3D('',#876,#877,#878);
#880=PLANE('',#879);
#881=ORIENTED_EDGE('',*,*,#777,.T.);
#882=ORIENTED_EDGE('',*,*,#840,.T.);
#883=ORIENTED_EDGE('',*,*,#869,.F.);
#884=ORIENTED_EDGE('',*,*,#787,.F.);
#885=EDGE_LOOP('',(#881,#882,#883,#884));
#886=FACE_OUTER_BOUND('',#885,.F.);
#887=ADVANCED_FACE('',(#886),#880,.T.);
#888=CARTESIAN_POINT('',(-2.125E0,2.281441698217E1,-3.904644309421E0));
#889=DIRECTION('',(0.E0,-9.935227530579E-1,1.136333540657E-1));
#890=DIRECTION('',(-1.E0,0.E0,0.E0));
#891=AXIS2_PLACEMENT_3D('',#888,#889,#890);
#892=CYLINDRICAL_SURFACE('',#891,1.25E-1);
#893=ORIENTED_EDGE('',*,*,#758,.T.);
#894=ORIENTED_EDGE('',*,*,#598,.T.);
#896=ORIENTED_EDGE('',*,*,#895,.T.);
#898=ORIENTED_EDGE('',*,*,#897,.F.);
#899=EDGE_LOOP('',(#893,#894,#896,#898));
#900=FACE_OUTER_BOUND('',#899,.F.);
#901=ADVANCED_FACE('',(#900),#892,.T.);
#902=CARTESIAN_POINT('',(-2.125E0,-3.624589317622E0,0.E0));
#903=DIRECTION('',(1.E0,0.E0,0.E0));
#904=DIRECTION('',(0.E0,-1.051655087765E-1,-9.944547328882E-1));
#905=AXIS2_PLACEMENT_3D('',#902,#903,#904);
#906=TOROIDAL_SURFACE('',#905,8.75E-1,1.25E-1);
#907=ORIENTED_EDGE('',*,*,#596,.T.);
#908=ORIENTED_EDGE('',*,*,#745,.T.);
#910=ORIENTED_EDGE('',*,*,#909,.F.);
#911=ORIENTED_EDGE('',*,*,#895,.F.);
#912=EDGE_LOOP('',(#907,#908,#910,#911));
#913=FACE_OUTER_BOUND('',#912,.F.);
#914=ADVANCED_FACE('',(#913),#906,.T.);
#915=CARTESIAN_POINT('',(-2.25E0,-3.624589317622E0,0.E0));
#916=DIRECTION('',(1.E0,0.E0,0.E0));
#917=DIRECTION('',(0.E0,-1.E0,0.E0));
#918=AXIS2_PLACEMENT_3D('',#915,#916,#917);
#919=CYLINDRICAL_SURFACE('',#918,1.E0);
#921=ORIENTED_EDGE('',*,*,#920,.T.);
#923=ORIENTED_EDGE('',*,*,#922,.F.);
#924=ORIENTED_EDGE('',*,*,#702,.T.);
#925=ORIENTED_EDGE('',*,*,#726,.T.);
#926=EDGE_LOOP('',(#921,#923,#924,#925));
#927=FACE_OUTER_BOUND('',#926,.F.);
#928=ADVANCED_FACE('',(#927),#919,.T.);
#929=CARTESIAN_POINT('',(-2.25E0,-3.624589317622E0,0.E0));
#930=DIRECTION('',(1.E0,0.E0,0.E0));
#931=DIRECTION('',(0.E0,-1.E0,0.E0));
#932=AXIS2_PLACEMENT_3D('',#929,#930,#931);
#933=CYLINDRICAL_SURFACE('',#932,1.E0);
#934=ORIENTED_EDGE('',*,*,#909,.T.);
#935=ORIENTED_EDGE('',*,*,#732,.T.);
#936=ORIENTED_EDGE('',*,*,#659,.T.);
#938=ORIENTED_EDGE('',*,*,#937,.F.);
#939=EDGE_LOOP('',(#934,#935,#936,#938));
#940=FACE_OUTER_BOUND('',#939,.F.);
#941=ADVANCED_FACE('',(#940),#933,.T.);
#942=CARTESIAN_POINT('',(2.125E0,-3.624589317622E0,0.E0));
#943=DIRECTION('',(1.E0,0.E0,0.E0));
#944=DIRECTION('',(0.E0,-1.076732382003E-1,9.941863375522E-1));
#945=AXIS2_PLACEMENT_3D('',#942,#943,#944);
#946=TOROIDAL_SURFACE('',#945,8.75E-1,1.25E-1);
#948=ORIENTED_EDGE('',*,*,#947,.T.);
#950=ORIENTED_EDGE('',*,*,#949,.T.);
#951=ORIENTED_EDGE('',*,*,#920,.F.);
#953=ORIENTED_EDGE('',*,*,#952,.F.);
#954=EDGE_LOOP('',(#948,#950,#951,#953));
#955=FACE_OUTER_BOUND('',#954,.F.);
#956=ADVANCED_FACE('',(#955),#946,.T.);
#957=CARTESIAN_POINT('',(2.25E0,0.E0,0.E0));
#958=DIRECTION('',(1.E0,0.E0,0.E0));
#959=DIRECTION('',(0.E0,-1.E0,0.E0));
#960=AXIS2_PLACEMENT_3D('',#957,#958,#959);
#961=PLANE('',#960);
#963=ORIENTED_EDGE('',*,*,#962,.F.);
#964=ORIENTED_EDGE('',*,*,#947,.F.);
#966=ORIENTED_EDGE('',*,*,#965,.F.);
#967=ORIENTED_EDGE('',*,*,#764,.F.);
#968=EDGE_LOOP('',(#963,#964,#966,#967));
#969=FACE_OUTER_BOUND('',#968,.F.);
#971=ORIENTED_EDGE('',*,*,#970,.T.);
#973=ORIENTED_EDGE('',*,*,#972,.T.);
#974=EDGE_LOOP('',(#971,#973));
#975=FACE_BOUND('',#974,.F.);
#976=ORIENTED_EDGE('',*,*,#641,.F.);
#977=ORIENTED_EDGE('',*,*,#689,.F.);
#978=EDGE_LOOP('',(#976,#977));
#979=FACE_BOUND('',#978,.F.);
#980=ADVANCED_FACE('',(#969,#975,#979),#961,.T.);
#981=CARTESIAN_POINT('',(2.25E0,2.874486467961E0,0.E0));
#982=DIRECTION('',(1.E0,0.E0,0.E0));
#983=DIRECTION('',(0.E0,-1.E0,0.E0));
#984=AXIS2_PLACEMENT_3D('',#981,#982,#983);
#985=CYLINDRICAL_SURFACE('',#984,6.25E-1);
#987=ORIENTED_EDGE('',*,*,#986,.T.);
#989=ORIENTED_EDGE('',*,*,#988,.F.);
#991=ORIENTED_EDGE('',*,*,#990,.F.);
#992=ORIENTED_EDGE('',*,*,#970,.F.);
#993=EDGE_LOOP('',(#987,#989,#991,#992));
#994=FACE_OUTER_BOUND('',#993,.F.);
#995=ADVANCED_FACE('',(#994),#985,.F.);
#996=CARTESIAN_POINT('',(2.25E0,2.874486467961E0,0.E0));
#997=DIRECTION('',(1.E0,0.E0,0.E0));
#998=DIRECTION('',(0.E0,-1.E0,0.E0));
#999=AXIS2_PLACEMENT_3D('',#996,#997,#998);
#1000=CYLINDRICAL_SURFACE('',#999,6.25E-1);
#1001=ORIENTED_EDGE('',*,*,#986,.F.);
#1002=ORIENTED_EDGE('',*,*,#972,.F.);
#1003=ORIENTED_EDGE('',*,*,#990,.T.);
#1005=ORIENTED_EDGE('',*,*,#1004,.F.);
#1006=EDGE_LOOP('',(#1001,#1002,#1003,#1005));
#1007=FACE_OUTER_BOUND('',#1006,.F.);
#1008=ADVANCED_FACE('',(#1007),#1000,.F.);
#1009=CARTESIAN_POINT('',(5.9E-1,0.E0,0.E0));
#1010=DIRECTION('',(1.E0,0.E0,0.E0));
#1011=DIRECTION('',(0.E0,-1.E0,0.E0));
#1012=AXIS2_PLACEMENT_3D('',#1009,#1010,#1011);
#1013=PLANE('',#1012);
#1014=ORIENTED_EDGE('',*,*,#988,.T.);
#1015=ORIENTED_EDGE('',*,*,#1004,.T.);
#1016=EDGE_LOOP('',(#1014,#1015));
#1017=FACE_OUTER_BOUND('',#1016,.F.);
#1019=ORIENTED_EDGE('',*,*,#1018,.T.);
#1021=ORIENTED_EDGE('',*,*,#1020,.T.);
#1022=EDGE_LOOP('',(#1019,#1021));
#1023=FACE_BOUND('',#1022,.F.);
#1024=ADVANCED_FACE('',(#1017,#1023),#1013,.T.);
#1025=CARTESIAN_POINT('',(-2.25E0,2.874486467961E0,0.E0));
#1026=DIRECTION('',(1.E0,0.E0,0.E0));
#1027=DIRECTION('',(0.E0,-1.E0,0.E0));
#1028=AXIS2_PLACEMENT_3D('',#1025,#1026,#1027);
#1029=CYLINDRICAL_SURFACE('',#1028,5.E-1);
#1030=ORIENTED_EDGE('',*,*,#1018,.F.);
#1032=ORIENTED_EDGE('',*,*,#1031,.F.);
#1033=ORIENTED_EDGE('',*,*,#606,.F.);
#1035=ORIENTED_EDGE('',*,*,#1034,.T.);
#1036=EDGE_LOOP('',(#1030,#1032,#1033,#1035));
#1037=FACE_OUTER_BOUND('',#1036,.F.);
#1038=ADVANCED_FACE('',(#1037),#1029,.F.);
#1039=CARTESIAN_POINT('',(-2.25E0,2.874486467961E0,0.E0));
#1040=DIRECTION('',(1.E0,0.E0,0.E0));
#1041=DIRECTION('',(0.E0,-1.E0,0.E0));
#1042=AXIS2_PLACEMENT_3D('',#1039,#1040,#1041);
#1043=CYLINDRICAL_SURFACE('',#1042,5.E-1);
#1044=ORIENTED_EDGE('',*,*,#1020,.F.);
#1045=ORIENTED_EDGE('',*,*,#1034,.F.);
#1046=ORIENTED_EDGE('',*,*,#604,.F.);
#1047=ORIENTED_EDGE('',*,*,#1031,.T.);
#1048=EDGE_LOOP('',(#1044,#1045,#1046,#1047));
#1049=FACE_OUTER_BOUND('',#1048,.F.);
#1050=ADVANCED_FACE('',(#1049),#1043,.F.);
#1051=CARTESIAN_POINT('',(2.125E0,-3.729976610690E0,-8.686509551558E-1));
#1052=DIRECTION('',(0.E0,9.935227530579E-1,-1.136333540657E-1));
#1053=DIRECTION('',(1.E0,0.E0,0.E0));
#1054=AXIS2_PLACEMENT_3D('',#1051,#1052,#1053);
#1055=CYLINDRICAL_SURFACE('',#1054,1.25E-1);
#1056=ORIENTED_EDGE('',*,*,#762,.T.);
#1058=ORIENTED_EDGE('',*,*,#1057,.F.);
#1059=ORIENTED_EDGE('',*,*,#949,.F.);
#1060=ORIENTED_EDGE('',*,*,#962,.T.);
#1061=EDGE_LOOP('',(#1056,#1058,#1059,#1060));
#1062=FACE_OUTER_BOUND('',#1061,.F.);
#1063=ADVANCED_FACE('',(#1062),#1055,.T.);
#1064=CARTESIAN_POINT('',(-2.25E0,-3.738222671687E0,-9.935227530579E-1));
#1065=DIRECTION('',(0.E0,-1.136333540657E-1,-9.935227530579E-1));
#1066=DIRECTION('',(0.E0,9.935227530579E-1,-1.136333540657E-1));
#1067=AXIS2_PLACEMENT_3D('',#1064,#1065,#1066);
#1068=PLANE('',#1067);
#1069=ORIENTED_EDGE('',*,*,#897,.T.);
#1070=ORIENTED_EDGE('',*,*,#937,.T.);
#1071=ORIENTED_EDGE('',*,*,#657,.T.);
#1073=ORIENTED_EDGE('',*,*,#1072,.T.);
#1074=ORIENTED_EDGE('',*,*,#704,.F.);
#1075=ORIENTED_EDGE('',*,*,#922,.T.);
#1076=ORIENTED_EDGE('',*,*,#1057,.T.);
#1077=ORIENTED_EDGE('',*,*,#760,.F.);
#1078=EDGE_LOOP('',(#1069,#1070,#1071,#1073,#1074,#1075,#1076,#1077));
#1079=FACE_OUTER_BOUND('',#1078,.F.);
#1080=ADVANCED_FACE('',(#1079),#1068,.T.);
#1081=CARTESIAN_POINT('',(0.E0,-1.604360055546E-1,-1.402729183160E0));
#1082=DIRECTION('',(0.E0,-1.136333540657E-1,-9.935227530579E-1));
#1083=DIRECTION('',(-1.E0,0.E0,0.E0));
#1084=AXIS2_PLACEMENT_3D('',#1081,#1082,#1083);
#1085=CYLINDRICAL_SURFACE('',#1084,1.129534695332E0);
#1086=ORIENTED_EDGE('',*,*,#729,.T.);
#1087=ORIENTED_EDGE('',*,*,#706,.F.);
#1088=ORIENTED_EDGE('',*,*,#1072,.F.);
#1089=ORIENTED_EDGE('',*,*,#655,.T.);
#1090=EDGE_LOOP('',(#1086,#1087,#1088,#1089));
#1091=FACE_OUTER_BOUND('',#1090,.F.);
#1092=ADVANCED_FACE('',(#1091),#1085,.F.);
#1093=CARTESIAN_POINT('',(2.125E0,2.281441698217E1,3.904644309421E0));
#1094=DIRECTION('',(0.E0,-9.935227530579E-1,-1.136333540657E-1));
#1095=DIRECTION('',(1.E0,0.E0,0.E0));
#1096=AXIS2_PLACEMENT_3D('',#1093,#1094,#1095);
#1097=CYLINDRICAL_SURFACE('',#1096,1.25E-1);
#1098=ORIENTED_EDGE('',*,*,#766,.T.);
#1099=ORIENTED_EDGE('',*,*,#965,.T.);
#1100=ORIENTED_EDGE('',*,*,#952,.T.);
#1101=ORIENTED_EDGE('',*,*,#724,.F.);
#1102=EDGE_LOOP('',(#1098,#1099,#1100,#1101));
#1103=FACE_OUTER_BOUND('',#1102,.F.);
#1104=ADVANCED_FACE('',(#1103),#1097,.T.);
#1107=DIMENSIONAL_EXPONENTS(1.E0,0.E0,0.E0,0.E0,0.E0,0.E0,0.E0);
#1109=LENGTH_MEASURE_WITH_UNIT(LENGTH_MEASURE(2.54E1),#1108);
#1110=(CONVERSION_BASED_UNIT('INCH',#1109)LENGTH_UNIT()NAMED_UNIT(#1107));
#1111=DIMENSIONAL_EXPONENTS(0.E0,0.E0,0.E0,0.E0,0.E0,0.E0,0.E0);
#1113=PLANE_ANGLE_MEASURE_WITH_UNIT(PLANE_ANGLE_MEASURE(1.745329251994E-2),
#1112);
#1114=(CONVERSION_BASED_UNIT('DEGREE',#1113)NAMED_UNIT(*)PLANE_ANGLE_UNIT());
#1116=UNCERTAINTY_MEASURE_WITH_UNIT(LENGTH_MEASURE(3.9E-4),#1110,'closure',
'Maximum model space distance between geometric entities at asserted connectivities');
#1117=(GEOMETRIC_REPRESENTATION_CONTEXT(3)GLOBAL_UNCERTAINTY_ASSIGNED_CONTEXT((
#1116))GLOBAL_UNIT_ASSIGNED_CONTEXT((#1110,#1114,#1115))REPRESENTATION_CONTEXT(
'ID1','3'));
#1119=APPLICATION_CONTEXT(
'CONFIGURATION CONTROLLED 3D DESIGNS OF MECHANICAL PARTS AND ASSEMBLIES');
#1120=APPLICATION_PROTOCOL_DEFINITION('international standard',
'config_control_design',1994,#1119);
#1121=DESIGN_CONTEXT('',#1119,'design');
#1122=MECHANICAL_CONTEXT('',#1119,'mechanical');
#1123=PRODUCT('MIDTERMPART','MIDTERMPART','NOT SPECIFIED',(#1122));
#1124=PRODUCT_DEFINITION_FORMATION_WITH_SPECIFIED_SOURCE('4','LAST_VERSION',
#1123,.MADE.);
#1128=PRODUCT_CATEGORY('part','');
#1129=PRODUCT_RELATED_PRODUCT_CATEGORY('detail','',(#1123));
#1130=PRODUCT_CATEGORY_RELATIONSHIP('','',#1128,#1129);
#1131=SECURITY_CLASSIFICATION_LEVEL('unclassified');
#1132=SECURITY_CLASSIFICATION('','',#1131);
#1133=CC_DESIGN_SECURITY_CLASSIFICATION(#1132,(#1124));
#1134=APPROVAL_STATUS('approved');
#1135=APPROVAL(#1134,'');
#1136=CC_DESIGN_APPROVAL(#1135,(#1132,#1124,#1125));
#1137=CALENDAR_DATE(126,29,7);
#1138=COORDINATED_UNIVERSAL_TIME_OFFSET(4,0,.BEHIND.);
#1139=LOCAL_TIME(1,48,2.4E1,#1138);
#1140=DATE_AND_TIME(#1137,#1139);
#1141=APPROVAL_DATE_TIME(#1140,#1135);
#1142=DATE_TIME_ROLE('creation_date');
#1143=CC_DESIGN_DATE_AND_TIME_ASSIGNMENT(#1140,#1142,(#1125));
#1144=DATE_TIME_ROLE('classification_date');
#1145=CC_DESIGN_DATE_AND_TIME_ASSIGNMENT(#1140,#1144,(#1132));
#1146=PERSON('UNSPECIFIED','UNSPECIFIED',$,$,$,$);
#1147=ORGANIZATION('UNSPECIFIED','UNSPECIFIED','UNSPECIFIED');
#1148=PERSON_AND_ORGANIZATION(#1146,#1147);
#1149=APPROVAL_ROLE('approver');
#1150=APPROVAL_PERSON_ORGANIZATION(#1148,#1135,#1149);
#1151=PERSON_AND_ORGANIZATION_ROLE('creator');
#1152=CC_DESIGN_PERSON_AND_ORGANIZATION_ASSIGNMENT(#1148,#1151,(#1124,#1125));
#1153=PERSON_AND_ORGANIZATION_ROLE('design_supplier');
#1154=CC_DESIGN_PERSON_AND_ORGANIZATION_ASSIGNMENT(#1148,#1153,(#1124));
#1155=PERSON_AND_ORGANIZATION_ROLE('classification_officer');
#1156=CC_DESIGN_PERSON_AND_ORGANIZATION_ASSIGNMENT(#1148,#1155,(#1132));
#1157=PERSON_AND_ORGANIZATION_ROLE('design_owner');
#1158=CC_DESIGN_PERSON_AND_ORGANIZATION_ASSIGNMENT(#1148,#1157,(#1123));
#5=CIRCLE('',#4,5.E-1);
#10=CIRCLE('',#9,5.E-1);
#15=CIRCLE('',#14,5.E-1);
#20=CIRCLE('',#19,5.E-1);
#29=CIRCLE('',#28,8.75E-1);
#38=CIRCLE('',#37,1.749845964264E0);
#43=CIRCLE('',#42,5.E-1);
#52=CIRCLE('',#51,5.E-1);
#61=CIRCLE('',#60,5.E-1);
#70=CIRCLE('',#69,5.E-1);
#120=B_SPLINE_CURVE_WITH_KNOTS('',3,(#95,#96,#97,#98,#99,#100,#101,#102,#103,
#104,#105,#106,#107,#108,#109,#110,#111,#112,#113,#114,#115,#116,#117,#118,
#119),.UNSPECIFIED.,.F.,.F.,(4,1,1,1,1,1,1,1,1,1,1,1,1,1,1,1,1,1,1,1,1,1,4),(
0.E0,6.25E-2,1.25E-1,1.875E-1,2.5E-1,3.125E-1,3.75E-1,4.0625E-1,4.375E-1,
4.6875E-1,4.84375E-1,5.E-1,5.15625E-1,5.3125E-1,5.625E-1,5.9375E-1,6.25E-1,
6.875E-1,7.5E-1,8.125E-1,8.75E-1,9.375E-1,1.E0),.UNSPECIFIED.);
#129=CIRCLE('',#128,1.25E-1);
#134=CIRCLE('',#133,1.749845964264E0);
#143=CIRCLE('',#142,1.749845964264E0);
#180=B_SPLINE_CURVE_WITH_KNOTS('',3,(#148,#149,#150,#151,#152,#153,#154,#155,
#156,#157,#158,#159,#160,#161,#162,#163,#164,#165,#166,#167,#168,#169,#170,#171,
#172,#173,#174,#175,#176,#177,#178,#179),.UNSPECIFIED.,.F.,.F.,(4,1,1,1,1,1,1,1,
1,1,1,1,1,1,1,1,1,1,1,1,1,1,1,1,1,1,1,1,1,4),(0.E0,3.448275862069E-2,
6.896551724138E-2,1.034482758621E-1,1.379310344828E-1,1.724137931034E-1,
2.068965517241E-1,2.413793103448E-1,2.758620689655E-1,3.103448275862E-1,
3.448275862069E-1,3.793103448276E-1,4.137931034483E-1,4.482758620690E-1,
4.827586206897E-1,5.172413793103E-1,5.517241379310E-1,5.862068965517E-1,
6.206896551724E-1,6.551724137931E-1,6.896551724138E-1,7.241379310345E-1,
7.586206896552E-1,7.931034482759E-1,8.275862068966E-1,8.620689655172E-1,
8.965517241379E-1,9.310344827586E-1,9.655172413793E-1,1.E0),.UNSPECIFIED.);
#213=B_SPLINE_CURVE_WITH_KNOTS('',3,(#181,#182,#183,#184,#185,#186,#187,#188,
#189,#190,#191,#192,#193,#194,#195,#196,#197,#198,#199,#200,#201,#202,#203,#204,
#205,#206,#207,#208,#209,#210,#211,#212),.UNSPECIFIED.,.F.,.F.,(4,1,1,1,1,1,1,1,
1,1,1,1,1,1,1,1,1,1,1,1,1,1,1,1,1,1,1,1,1,4),(0.E0,3.448275862069E-2,
6.896551724138E-2,1.034482758621E-1,1.379310344828E-1,1.724137931034E-1,
2.068965517241E-1,2.413793103448E-1,2.758620689655E-1,3.103448275862E-1,
3.448275862069E-1,3.793103448276E-1,4.137931034483E-1,4.482758620690E-1,
4.827586206897E-1,5.172413793103E-1,5.517241379310E-1,5.862068965517E-1,
6.206896551724E-1,6.551724137931E-1,6.896551724138E-1,7.241379310345E-1,
7.586206896552E-1,7.931034482759E-1,8.275862068966E-1,8.620689655172E-1,
8.965517241379E-1,9.310344827586E-1,9.655172413793E-1,1.E0),.UNSPECIFIED.);
#250=B_SPLINE_CURVE_WITH_KNOTS('',3,(#218,#219,#220,#221,#222,#223,#224,#225,
#226,#227,#228,#229,#230,#231,#232,#233,#234,#235,#236,#237,#238,#239,#240,#241,
#242,#243,#244,#245,#246,#247,#248,#249),.UNSPECIFIED.,.F.,.F.,(4,1,1,1,1,1,1,1,
1,1,1,1,1,1,1,1,1,1,1,1,1,1,1,1,1,1,1,1,1,4),(0.E0,3.448275862069E-2,
6.896551724138E-2,1.034482758621E-1,1.379310344828E-1,1.724137931034E-1,
2.068965517241E-1,2.413793103448E-1,2.758620689655E-1,3.103448275862E-1,
3.448275862069E-1,3.793103448276E-1,4.137931034483E-1,4.482758620690E-1,
4.827586206897E-1,5.172413793103E-1,5.517241379310E-1,5.862068965517E-1,
6.206896551724E-1,6.551724137931E-1,6.896551724138E-1,7.241379310345E-1,
7.586206896552E-1,7.931034482759E-1,8.275862068966E-1,8.620689655172E-1,
8.965517241379E-1,9.310344827586E-1,9.655172413793E-1,1.E0),.UNSPECIFIED.);
#283=B_SPLINE_CURVE_WITH_KNOTS('',3,(#251,#252,#253,#254,#255,#256,#257,#258,
#259,#260,#261,#262,#263,#264,#265,#266,#267,#268,#269,#270,#271,#272,#273,#274,
#275,#276,#277,#278,#279,#280,#281,#282),.UNSPECIFIED.,.F.,.F.,(4,1,1,1,1,1,1,1,
1,1,1,1,1,1,1,1,1,1,1,1,1,1,1,1,1,1,1,1,1,4),(0.E0,3.448275862069E-2,
6.896551724138E-2,1.034482758621E-1,1.379310344828E-1,1.724137931034E-1,
2.068965517241E-1,2.413793103448E-1,2.758620689655E-1,3.103448275862E-1,
3.448275862069E-1,3.793103448276E-1,4.137931034483E-1,4.482758620690E-1,
4.827586206897E-1,5.172413793103E-1,5.517241379310E-1,5.862068965517E-1,
6.206896551724E-1,6.551724137931E-1,6.896551724138E-1,7.241379310345E-1,
7.586206896552E-1,7.931034482759E-1,8.275862068966E-1,8.620689655172E-1,
8.965517241379E-1,9.310344827586E-1,9.655172413793E-1,1.E0),.UNSPECIFIED.);
#288=CIRCLE('',#287,5.E-1);
#293=CIRCLE('',#292,5.E-1);
#318=CIRCLE('',#317,5.E-1);
#323=CIRCLE('',#322,5.E-1);
#348=CIRCLE('',#347,1.25E-1);
#353=CIRCLE('',#352,1.E0);
#358=CIRCLE('',#357,1.E0);
#367=CIRCLE('',#366,1.E0);
#376=CIRCLE('',#375,1.E0);
#381=CIRCLE('',#380,1.25E-1);
#386=CIRCLE('',#385,5.E-1);
#391=CIRCLE('',#390,5.E-1);
#396=CIRCLE('',#395,6.25E-1);
#401=CIRCLE('',#400,6.25E-1);
#410=CIRCLE('',#409,8.75E-1);
#419=CIRCLE('',#418,1.749845964264E0);
#432=CIRCLE('',#431,6.25E-1);
#437=CIRCLE('',#436,6.25E-1);
#442=CIRCLE('',#441,5.E-1);
#451=CIRCLE('',#450,5.E-1);
#460=CIRCLE('',#459,1.25E-1);
#477=CIRCLE('',#476,1.129534695332E0);
#594=EDGE_CURVE('',#582,#577,#24,.T.);
#596=EDGE_CURVE('',#584,#582,#29,.T.);
#598=EDGE_CURVE('',#588,#584,#33,.T.);
#600=EDGE_CURVE('',#588,#577,#38,.T.);
#604=EDGE_CURVE('',#501,#500,#15,.T.);
#606=EDGE_CURVE('',#500,#501,#20,.T.);
#610=EDGE_CURVE('',#496,#497,#5,.T.);
#612=EDGE_CURVE('',#497,#496,#10,.T.);
#622=EDGE_CURVE('',#508,#509,#43,.T.);
#624=EDGE_CURVE('',#497,#508,#65,.T.);
#627=EDGE_CURVE('',#496,#509,#47,.T.);
#637=EDGE_CURVE('',#512,#513,#52,.T.);
#639=EDGE_CURVE('',#513,#504,#56,.T.);
#641=EDGE_CURVE('',#504,#505,#386,.T.);
#643=EDGE_CURVE('',#512,#505,#74,.T.);
#653=EDGE_CURVE('',#516,#517,#124,.T.);
#655=EDGE_CURVE('',#526,#517,#493,.T.);
#657=EDGE_CURVE('',#522,#526,#472,.T.);
#659=EDGE_CURVE('',#516,#522,#376,.T.);
#664=EDGE_CURVE('',#509,#508,#61,.T.);
#686=EDGE_CURVE('',#513,#512,#70,.T.);
#689=EDGE_CURVE('',#505,#504,#391,.T.);
#700=EDGE_CURVE('',#520,#518,#94,.T.);
#702=EDGE_CURVE('',#524,#520,#358,.T.);
#704=EDGE_CURVE('',#524,#528,#481,.T.);
#706=EDGE_CURVE('',#528,#518,#78,.T.);
#720=EDGE_CURVE('',#580,#578,#82,.T.);
#722=EDGE_CURVE('',#578,#575,#86,.T.);
#724=EDGE_CURVE('',#575,#574,#90,.T.);
#726=EDGE_CURVE('',#520,#574,#362,.T.);
#729=EDGE_CURVE('',#517,#518,#120,.T.);
#732=EDGE_CURVE('',#580,#516,#371,.T.);
#742=EDGE_CURVE('',#577,#578,#180,.T.);
#745=EDGE_CURVE('',#582,#580,#129,.T.);
#758=EDGE_CURVE('',#587,#588,#213,.T.);
#760=EDGE_CURVE('',#587,#566,#217,.T.);
#762=EDGE_CURVE('',#565,#566,#250,.T.);
#764=EDGE_CURVE('',#565,#576,#419,.T.);
#766=EDGE_CURVE('',#575,#576,#283,.T.);
#771=EDGE_CURVE('',#547,#548,#134,.T.);
#773=EDGE_CURVE('',#548,#552,#138,.T.);
#775=EDGE_CURVE('',#551,#552,#143,.T.);
#777=EDGE_CURVE('',#547,#551,#147,.T.);
#787=EDGE_CURVE('',#547,#535,#297,.T.);
#789=EDGE_CURVE('',#535,#536,#301,.T.);
#791=EDGE_CURVE('',#536,#548,#305,.T.);
#796=EDGE_CURVE('',#531,#532,#288,.T.);
#798=EDGE_CURVE('',#532,#531,#293,.T.);
#809=EDGE_CURVE('',#531,#539,#309,.T.);
#811=EDGE_CURVE('',#539,#540,#318,.T.);
#813=EDGE_CURVE('',#532,#540,#313,.T.);
#825=EDGE_CURVE('',#540,#539,#323,.T.);
#836=EDGE_CURVE('',#544,#552,#327,.T.);
#838=EDGE_CURVE('',#543,#544,#331,.T.);
#840=EDGE_CURVE('',#551,#543,#335,.T.);
#857=EDGE_CURVE('',#536,#544,#339,.T.);
#869=EDGE_CURVE('',#535,#543,#343,.T.);
#895=EDGE_CURVE('',#584,#586,#348,.T.);
#897=EDGE_CURVE('',#587,#586,#464,.T.);
#909=EDGE_CURVE('',#586,#580,#367,.T.);
#920=EDGE_CURVE('',#574,#568,#353,.T.);
#922=EDGE_CURVE('',#524,#568,#485,.T.);
#937=EDGE_CURVE('',#586,#522,#468,.T.);
#947=EDGE_CURVE('',#572,#570,#410,.T.);
#949=EDGE_CURVE('',#570,#568,#460,.T.);
#952=EDGE_CURVE('',#572,#574,#381,.T.);
#962=EDGE_CURVE('',#570,#565,#405,.T.);
#965=EDGE_CURVE('',#576,#572,#414,.T.);
#970=EDGE_CURVE('',#562,#564,#396,.T.);
#972=EDGE_CURVE('',#564,#562,#401,.T.);
#986=EDGE_CURVE('',#562,#556,#423,.T.);
#988=EDGE_CURVE('',#555,#556,#432,.T.);
#990=EDGE_CURVE('',#564,#555,#427,.T.);
#1004=EDGE_CURVE('',#556,#555,#437,.T.);
#1018=EDGE_CURVE('',#559,#560,#442,.T.);
#1020=EDGE_CURVE('',#560,#559,#451,.T.);
#1031=EDGE_CURVE('',#501,#559,#455,.T.);
#1034=EDGE_CURVE('',#500,#560,#446,.T.);
#1057=EDGE_CURVE('',#568,#566,#489,.T.);
#1072=EDGE_CURVE('',#526,#528,#477,.T.);
#1105=CLOSED_SHELL('',(#616,#631,#647,#668,#680,#694,#714,#736,#750,#781,#802,
#817,#830,#849,#862,#875,#887,#901,#914,#928,#941,#956,#980,#995,#1008,#1024,
#1038,#1050,#1063,#1080,#1092,#1104));
#1106=MANIFOLD_SOLID_BREP('',#1105);
#1108=(LENGTH_UNIT()NAMED_UNIT(*)SI_UNIT(.MILLI.,.METRE.));
#1112=(NAMED_UNIT(*)PLANE_ANGLE_UNIT()SI_UNIT($,.RADIAN.));
#1115=(NAMED_UNIT(*)SI_UNIT($,.STERADIAN.)SOLID_ANGLE_UNIT());
#1118=ADVANCED_BREP_SHAPE_REPRESENTATION('',(#1106),#1117);
#1125=PRODUCT_DEFINITION('design','',#1124,#1121);
#1126=PRODUCT_DEFINITION_SHAPE('','SHAPE FOR MIDTERMPART.',#1125);
#1127=SHAPE_DEFINITION_REPRESENTATION(#1126,#1118);
ENDSEC;
END-ISO-10303-21;
